<?xml version="1.0"?>


<svg width="65.62957mm" height="34.589436mm" viewBox="0 0 65.62957 34.589436" version="1.1" id="svg1" xml:space="preserve" xmlns:inkscape="http://www.inkscape.org/namespaces/inkscape" xmlns:sodipodi="http://sodipodi.sourceforge.net/DTD/sodipodi-0.dtd" xmlns="http://www.w3.org/2000/svg" xmlns:svg="http://www.w3.org/2000/svg"><namedview id="namedview1" pagecolor="#ffffff" bordercolor="#000000" borderopacity="0.25"></namedview><defs id="defs1"></defs><g id="layer1" transform="translate(-72.631355,-95.088664)"><path style="fill:#006ba6;fill-opacity:1;stroke-width:0.0644059" d="M 72.631351,112.38338 V 95.088668 h 32.814779 32.81479 V 112.38338 129.6781 H 105.44613 72.631351 Z" id="path2"></path><path style="font-style:italic;font-size:5.99722px;font-family:Bicyclette;-inkscape-font-specification:&#39;Bicyclette Italic&#39;;letter-spacing:0.0396875px;fill:#ffffff;stroke-width:0.264583" d="m 88.278868,116.35247 c -0.04198,0 -0.08396,0.018 -0.125941,0.06 l -1.967088,2.21897 h -0.01799 l -1.043516,-2.21897 c -0.01799,-0.042 -0.05997,-0.06 -0.101953,-0.06 h -0.239889 c -0.03598,0 -0.07796,0.036 -0.08396,0.072 l -0.653697,3.36444 c -0.006,0.03 -0.01799,0.084 -0.01799,0.096 0,0.036 0.02399,0.066 0.05997,0.066 h 0.383822 c 0.03598,0 0.07796,-0.036 0.08396,-0.072 l 0.503766,-2.59679 h 0.01799 c 0,0 0.04198,0.1979 0.131939,0.38981 l 0.833613,1.78118 1.547283,-1.7332 c 0.167922,-0.19191 0.341842,-0.43779 0.341842,-0.43779 h 0.01799 l -0.503766,2.59679 c -0.006,0.036 0.02399,0.072 0.05997,0.072 h 0.383822 c 0.03598,0 0.07796,-0.036 0.08396,-0.072 l 0.659694,-3.39443 c 0.006,-0.03 0.01199,-0.06 0.01199,-0.072 0,-0.03 -0.02399,-0.06 -0.05997,-0.06 z m 3.068279,-0.06 c -1.2954,0 -2.230966,0.98355 -2.230966,2.19499 0,0.91757 0.659694,1.52329 1.595261,1.52329 1.295399,0 2.236963,-0.98354 2.236963,-2.19498 0,-0.91758 -0.653697,-1.5233 -1.601258,-1.5233 z m -0.04798,0.45579 c 0.68968,0 1.12148,0.41981 1.12148,1.0915 0,0.95355 -0.749652,1.7152 -1.667227,1.7152 -0.677686,0 -1.109486,-0.4318 -1.109486,-1.09749 0,-0.95955 0.737658,-1.70921 1.655233,-1.70921 z m 3.584042,0.06 -0.575733,2.98062 c -0.006,0.03 -0.01799,0.084 -0.01799,0.096 0,0.036 0.02399,0.066 0.05997,0.066 h 0.383822 c 0.03598,0 0.07796,-0.036 0.08396,-0.072 l 0.593725,-3.07058 h 1.361369 c 0.03598,0 0.09596,-0.048 0.101952,-0.084 l 0.04198,-0.22189 c 0.006,-0.03 0.01199,-0.06 0.01199,-0.072 0,-0.036 -0.02999,-0.078 -0.06597,-0.078 h -3.250493 c -0.03598,0 -0.09596,0.048 -0.101953,0.084 l -0.03598,0.19191 c -0.006,0.03 -0.01799,0.09 -0.01799,0.10195 0,0.024 0.02999,0.078 0.06597,0.078 z m 4.177765,-0.51576 c -1.2954,0 -2.230966,0.98355 -2.230966,2.19499 0,0.91757 0.659694,1.52329 1.595261,1.52329 1.295399,0 2.236959,-0.98354 2.236959,-2.19498 0,-0.91758 -0.65369,-1.5233 -1.601254,-1.5233 z m -0.04798,0.45579 c 0.68968,0 1.121482,0.41981 1.121482,1.0915 0,0.95355 -0.749654,1.7152 -1.667229,1.7152 -0.677686,0 -1.109486,-0.4318 -1.109486,-1.09749 0,-0.95955 0.737659,-1.70921 1.655233,-1.70921 z m 5.539142,0.6537 c 0,-0.60572 -0.46179,-1.04951 -1.24742,-1.04951 h -1.41535 c -0.036,0 -0.078,0.036 -0.084,0.072 l -0.6537,3.36444 c -0.006,0.03 -0.018,0.09 -0.018,0.10196 0,0.03 0.024,0.06 0.06,0.06 h 0.38382 c 0.036,0 0.078,-0.036 0.084,-0.072 l 0.23389,-1.19944 h 0.94156 l 0.68968,1.22943 c 0.012,0.024 0.042,0.042 0.078,0.042 h 0.44979 c 0.036,0 0.054,-0.018 0.054,-0.042 0,-0.012 -0.012,-0.042 -0.03,-0.072 l -0.53975,-0.94756 c -0.078,-0.13794 -0.16792,-0.24589 -0.16792,-0.24589 v -0.006 c 0.68368,-0.13794 1.18145,-0.57574 1.18145,-1.23543 z m -1.33138,-0.59373 c 0.52175,0 0.80962,0.2279 0.80362,0.59373 0,0.61172 -0.57573,0.8516 -1.13947,0.8516 h -0.90558 l 0.27587,-1.44533 z m 1.76689,1.93111 c -0.054,0 -0.078,0.024 -0.084,0.066 -0.012,0.072 -0.024,0.19191 -0.024,0.25788 0,0.47978 0.44379,0.94756 1.42134,0.94756 0.89958,0 1.66722,-0.4378 1.66722,-1.19944 0,-0.38982 -0.25188,-0.73766 -0.92357,-0.84561 l -0.83961,-0.13194 c -0.36583,-0.06 -0.50377,-0.2159 -0.50377,-0.41381 0,-0.34784 0.4438,-0.67169 1.04952,-0.67169 0.62371,0 0.81562,0.26988 0.81562,0.56374 0,0.018 0,0.054 -0.006,0.096 -0.006,0.042 0.012,0.072 0.078,0.072 h 0.32984 c 0.066,0 0.096,-0.03 0.10196,-0.06 0.018,-0.084 0.024,-0.16192 0.024,-0.23989 0,-0.41381 -0.34784,-0.88759 -1.3134,-0.88759 -0.97754,0 -1.61924,0.58173 -1.61924,1.16946 0,0.41381 0.28186,0.70767 0.87559,0.80363 l 0.8516,0.13194 c 0.41381,0.066 0.54575,0.23389 0.54575,0.4378 0,0.34184 -0.37782,0.71966 -1.0855,0.71966 -0.71966,0 -0.94156,-0.26388 -0.94156,-0.58173 0,-0.048 0.006,-0.0959 0.018,-0.14993 0.012,-0.054 0,-0.084 -0.066,-0.084 z m 4.03983,1.21144 c 0.036,0 0.078,-0.036 0.084,-0.072 l 0.17991,-0.92957 h 0.92358 c 0.98354,0 1.7092,-0.55174 1.7092,-1.46932 0,-0.61171 -0.44979,-1.12747 -1.22943,-1.12747 h -1.35537 c -0.036,0 -0.078,0.036 -0.084,0.072 l -0.6537,3.36444 c -0.006,0.03 -0.018,0.09 -0.018,0.10196 0,0.03 0.024,0.06 0.06,0.06 z m 1.56527,-3.14255 c 0.50976,0 0.80363,0.25189 0.80363,0.67169 0,0.62971 -0.44979,1.01353 -1.13947,1.01353 h -0.8756 l 0.32385,-1.68522 z m 3.91389,-0.51576 c -1.2954,0 -2.23097,0.98355 -2.23097,2.19499 0,0.91757 0.6597,1.52329 1.59526,1.52329 1.2954,0 2.23697,-0.98354 2.23697,-2.19498 0,-0.91758 -0.6537,-1.5233 -1.60126,-1.5233 z m -0.048,0.45579 c 0.68968,0 1.12148,0.41981 1.12148,1.0915 0,0.95355 -0.74965,1.7152 -1.66723,1.7152 -0.67768,0 -1.10948,-0.4318 -1.10948,-1.09749 0,-0.95955 0.73766,-1.70921 1.65523,-1.70921 z m 5.53914,0.6537 c 0,-0.60572 -0.46178,-1.04951 -1.24742,-1.04951 h -1.41534 c -0.036,0 -0.078,0.036 -0.084,0.072 l -0.6537,3.36444 c -0.006,0.03 -0.018,0.09 -0.018,0.10196 0,0.03 0.024,0.06 0.06,0.06 h 0.38382 c 0.036,0 0.078,-0.036 0.084,-0.072 l 0.23389,-1.19944 h 0.94157 l 0.68968,1.22943 c 0.012,0.024 0.042,0.042 0.078,0.042 h 0.44979 c 0.036,0 0.054,-0.018 0.054,-0.042 0,-0.012 -0.012,-0.042 -0.03,-0.072 l -0.53975,-0.94756 c -0.078,-0.13794 -0.16792,-0.24589 -0.16792,-0.24589 v -0.006 c 0.68368,-0.13794 1.18145,-0.57574 1.18145,-1.23543 z m -1.33138,-0.59373 c 0.52176,0 0.80962,0.2279 0.80363,0.59373 0,0.61172 -0.57574,0.8516 -1.13947,0.8516 h -0.90559 l 0.27588,-1.44533 z m 3.21821,0 -0.57573,2.98062 c -0.006,0.03 -0.018,0.084 -0.018,0.096 0,0.036 0.024,0.066 0.06,0.066 h 0.38382 c 0.036,0 0.078,-0.036 0.084,-0.072 l 0.59373,-3.07058 h 1.36137 c 0.036,0 0.096,-0.048 0.10195,-0.084 l 0.042,-0.22189 c 0.006,-0.03 0.012,-0.06 0.012,-0.072 0,-0.036 -0.03,-0.078 -0.066,-0.078 h -3.25049 c -0.036,0 -0.096,0.048 -0.10195,0.084 l -0.036,0.19191 c -0.006,0.03 -0.018,0.09 -0.018,0.10195 0,0.024 0.03,0.078 0.066,0.078 z m 1.99478,1.93111 c -0.054,0 -0.078,0.024 -0.084,0.066 -0.012,0.072 -0.024,0.19191 -0.024,0.25788 0,0.47978 0.4438,0.94756 1.42134,0.94756 0.89959,0 1.66723,-0.4378 1.66723,-1.19944 0,-0.38982 -0.25188,-0.73766 -0.92357,-0.84561 l -0.83961,-0.13194 c -0.36583,-0.06 -0.50377,-0.2159 -0.50377,-0.41381 0,-0.34784 0.44379,-0.67169 1.04951,-0.67169 0.62371,0 0.81563,0.26988 0.81563,0.56374 0,0.018 0,0.054 -0.006,0.096 -0.006,0.042 0.012,0.072 0.078,0.072 h 0.32985 c 0.066,0 0.096,-0.03 0.10195,-0.06 0.018,-0.084 0.024,-0.16192 0.024,-0.23989 0,-0.41381 -0.34784,-0.88759 -1.31339,-0.88759 -0.97755,0 -1.61925,0.58173 -1.61925,1.16946 0,0.41381 0.28187,0.70767 0.87559,0.80363 l 0.85161,0.13194 c 0.41381,0.066 0.54575,0.23389 0.54575,0.4378 0,0.34184 -0.37783,0.71966 -1.0855,0.71966 -0.71967,0 -0.94156,-0.26388 -0.94156,-0.58173 0,-0.048 0.006,-0.0959 0.018,-0.14993 0.012,-0.054 0,-0.084 -0.066,-0.084 z" id="text3" aria-label="MOTORSPORTS"></path><path id="text4" style="font-weight:800;font-size:61.3333px;font-family:Bicyclette;-inkscape-font-specification:&#39;Bicyclette Ultra-Bold&#39;;white-space:pre;shape-padding:1.21951;fill:#ffffff;stroke-width:0.264583" d="m 88.61832,104.6976 c -2.90477,0 -4.560445,1.52543 -4.560445,3.42408 0,1.55786 1.168855,2.43425 3.148645,2.61276 l 2.417939,0.22737 c 0.762704,0.0811 0.989606,0.35686 0.989606,0.6165 0,0.47061 -0.486577,0.84388 -1.833481,0.84388 -1.02235,0 -1.509241,-0.25937 -1.768885,-0.82734 -0.08114,-0.17851 -0.194699,-0.27595 -0.405659,-0.27595 h -2.125969 c -0.210961,0 -0.389639,0.17816 -0.389639,0.38912 v 0.13023 c 0,1.60655 1.720469,2.92075 4.690152,2.92075 3.245554,0 4.754748,-1.6226 4.754748,-3.35897 0,-1.42804 -0.892765,-2.54783 -3.326929,-2.77502 l -2.385383,-0.22738 c -0.64911,-0.0649 -0.843875,-0.27552 -0.843875,-0.55139 0,-0.43815 0.584372,-0.81184 1.639175,-0.81184 0.860074,0 1.314117,0.32482 1.476397,0.6656 0.08114,0.16228 0.178787,0.21084 0.341063,0.21084 h 2.206583 c 0.210963,0 0.373621,-0.16214 0.373621,-0.37311 0,-1.44427 -1.379297,-2.84013 -4.397664,-2.84013 z m 5.993948,0.16226 c -0.09737,0 -0.194302,0.0975 -0.194302,0.19482 v 9.34724 c 0,0.0974 0.09693,0.19482 0.194302,0.19482 h 2.531629 c 0.09737,0 0.19482,-0.0975 0.19482,-0.19482 v -5.04673 h 0.06511 c 0,0 0.519205,0.64892 0.973582,1.1033 l 4.073141,4.13825 h 2.19056 c 0.0974,0 0.19482,-0.0975 0.19482,-0.19482 v -9.34724 c 0,-0.0974 -0.0975,-0.19482 -0.19482,-0.19482 h -2.53162 c -0.0974,0 -0.19431,0.0975 -0.19431,0.19482 v 5.0307 h -0.0491 c 0,0 -0.42185,-0.53553 -0.89245,-1.00614 l -4.170295,-4.21938 z m 15.741162,0 -4.36511,9.42837 c -0.0324,0.0811 -0.0651,0.14613 -0.0651,0.19482 0,0.0487 0.0323,0.11369 0.1297,0.11369 h 2.72645 c 0.19474,0 0.25941,-0.0323 0.34055,-0.21085 l 0.47077,-1.08727 c 0.47807,-1.09961 0.95908,-2.19792 1.44436,-3.29437 0.25964,-0.60043 0.63304,-1.85001 0.63304,-1.85001 h 0.0971 c 0,0 0.37339,1.24958 0.63303,1.85001 l 0.43822,0.99012 h -1.04316 l -0.86602,2.30425 h 2.91532 l 0.47026,1.08727 c 0.0811,0.17851 0.14633,0.21085 0.34106,0.21085 h 2.72593 c 0.0974,0 0.13023,-0.065 0.13023,-0.11369 0,-0.0487 -0.0327,-0.12991 -0.0651,-0.19482 l -4.36511,-9.42837 z m 8.43824,0 c -0.0974,0 -0.1943,0.0975 -0.1943,0.19482 v 9.34724 c 0,0.0974 0.0969,0.19482 0.1943,0.19482 h 2.53163 c 0.0974,0 0.19482,-0.0975 0.19482,-0.19482 v -2.09342 h 1.55804 c 2.3368,0 4.12172,-1.37915 4.12172,-3.68349 0,-2.25566 -1.70378,-3.76515 -4.12172,-3.76515 z m 2.72645,2.46703 h 1.26556 c 0.92498,0 1.47691,0.55153 1.47691,1.34669 0,0.79516 -0.56816,1.33067 -1.47691,1.33067 h -1.26556 z"></path></g></svg>